Normalized EMG Linear Envelopes
nRows=129
nColumns=4

endheader
time	 med_gas_r	  soleus_r	 tib_ant_r	
2.06237	  0.118700	  0.119611	  0.056531	
2.12486	  0.120558	  0.124577	  0.057612	
2.18736	  0.118741	  0.127619	  0.058730	
2.24986	  0.116877	  0.125782	  0.059678	
2.31235	  0.116105	  0.119383	  0.060650	
2.37485	  0.115215	  0.114572	  0.060048	
2.43734	  0.115742	  0.113954	  0.057110	
2.49984	  0.116572	  0.114301	  0.054389	
2.56234	  0.115869	  0.116331	  0.053591	
2.62483	  0.114235	  0.120738	  0.055367	
2.68733	  0.112247	  0.124848	  0.058121	
2.74982	  0.111378	  0.128436	  0.061592	
2.81232	  0.112198	  0.132299	  0.064454	
2.87482	  0.115653	  0.136437	  0.065597	
2.93731	  0.120648	  0.139501	  0.065397	
2.99981	  0.123071	  0.137920	  0.063669	
3.0623	  0.123641	  0.129593	  0.061803	
3.1248	  0.120998	  0.121823	  0.060354	
3.1873	  0.118706	  0.118680	  0.059311	
3.24979	  0.117510	  0.121413	  0.059377	
3.31229	  0.116424	  0.126106	  0.060865	
3.37478	  0.115831	  0.127901	  0.062875	
3.43728	  0.114512	  0.126647	  0.064729	
3.49978	  0.113690	  0.125029	  0.064909	
3.56227	  0.115529	  0.124144	  0.064561	
3.62477	  0.119283	  0.122331	  0.065134	
3.68726	  0.121192	  0.117477	  0.065781	
3.74976	  0.121505	  0.111747	  0.066190	
3.81226	  0.121688	  0.110603	  0.067036	
3.87475	  0.121382	  0.112794	  0.066450	
3.93725	  0.120804	  0.117171	  0.065454	
3.99974	  0.118884	  0.121321	  0.064117	
4.06224	  0.116321	  0.123742	  0.062582	
4.12474	  0.114228	  0.125479	  0.061108	
4.18723	  0.113882	  0.126142	  0.060369	
4.24973	  0.115373	  0.127689	  0.060618	
4.31222	  0.119022	  0.129370	  0.064254	
4.37472	  0.122820	  0.135653	  0.075355	
4.43722	  0.125921	  0.147953	  0.099781	
4.49971	  0.128672	  0.162272	  0.142697	
4.56221	  0.130672	  0.171027	  0.203185	
4.6247	  0.135439	  0.170159	  0.285581	
4.6872	  0.146378	  0.158460	  0.389353	
4.7497	  0.165078	  0.147366	  0.513780	
4.81219	  0.191088	  0.149921	  0.638098	
4.87469	  0.214894	  0.165932	  0.718464	
4.93718	  0.227314	  0.184953	  0.722687	
4.99968	  0.231158	  0.198216	  0.672341	
5.06218	  0.239256	  0.203696	  0.612136	
5.12467	  0.253047	  0.205908	  0.585504	
5.18717	  0.267182	  0.209074	  0.586713	
5.24966	  0.284104	  0.210830	  0.598859	
5.31216	  0.304828	  0.207888	  0.630357	
5.37466	  0.331036	  0.200936	  0.661083	
5.43715	  0.359136	  0.193309	  0.683732	
5.49965	  0.373425	  0.186380	  0.686300	
5.56214	  0.374823	  0.183234	  0.673759	
5.62464	  0.374794	  0.185842	  0.670286	
5.68714	  0.382488	  0.194279	  0.659499	
5.74963	  0.397223	  0.206530	  0.635486	
5.81213	  0.416152	  0.219909	  0.628143	
5.87462	  0.438623	  0.230253	  0.643317	
5.93712	  0.456442	  0.236083	  0.686181	
5.99962	  0.479198	  0.240822	  0.742006	
6.06211	  0.520302	  0.244753	  0.782366	
6.12461	  0.559524	  0.247039	  0.794060	
6.1871	  0.578454	  0.251538	  0.780661	
6.2496	  0.581819	  0.259860	  0.767186	
6.3121	  0.586968	  0.269242	  0.753064	
6.37459	  0.608863	  0.279861	  0.739212	
6.43709	  0.635809	  0.284642	  0.733870	
6.49958	  0.662792	  0.283464	  0.733754	
6.56208	  0.687204	  0.283645	  0.749811	
6.62458	  0.704347	  0.284880	  0.784378	
6.68707	  0.719647	  0.288733	  0.840377	
6.74957	  0.729851	  0.298819	  0.911058	
6.81206	  0.716149	  0.309897	  0.962276	
6.87456	  0.689820	  0.319862	  0.934414	
6.93706	  0.671611	  0.329406	  0.846611	
6.99955	  0.666098	  0.338278	  0.769098	
7.06205	  0.674083	  0.344914	  0.732777	
7.12454	  0.690330	  0.357491	  0.723089	
7.18704	  0.706079	  0.371803	  0.716813	
7.24954	  0.721354	  0.381097	  0.723630	
7.31203	  0.733251	  0.385572	  0.738508	
7.37453	  0.734018	  0.389794	  0.764878	
7.43702	  0.722541	  0.382296	  0.795413	
7.49952	  0.700779	  0.362279	  0.812834	
7.56202	  0.677653	  0.345101	  0.810384	
7.62451	  0.660483	  0.337614	  0.776186	
7.68701	  0.642646	  0.344490	  0.708133	
7.7495	  0.640700	  0.364851	  0.645301	
7.812	  0.644716	  0.386245	  0.624813	
7.8745	  0.645080	  0.396967	  0.635966	
7.93699	  0.639497	  0.387719	  0.655567	
7.99949	  0.628254	  0.363008	  0.672840	
8.06198	  0.618081	  0.342798	  0.666137	
8.12448	  0.605147	  0.341591	  0.627242	
8.18698	  0.599583	  0.360846	  0.588186	
8.24947	  0.617778	  0.379644	  0.581850	
8.31197	  0.645345	  0.381033	  0.605033	
8.37446	  0.675058	  0.381910	  0.623888	
8.43696	  0.680799	  0.387834	  0.608131	
8.49946	  0.642554	  0.389464	  0.569552	
8.56195	  0.586347	  0.385912	  0.555666	
8.62445	  0.552618	  0.371984	  0.570853	
8.68694	  0.547686	  0.360437	  0.582822	
8.74944	  0.556026	  0.362973	  0.599444	
8.81194	  0.553674	  0.375143	  0.614931	
8.87443	  0.534305	  0.391191	  0.607799	
8.93693	  0.518248	  0.398183	  0.564957	
8.99942	  0.514096	  0.388661	  0.518612	
9.06192	  0.538348	  0.372107	  0.505038	
9.12442	  0.576778	  0.357065	  0.532824	
9.18691	  0.599765	  0.344031	  0.587226	
9.24941	  0.618333	  0.338383	  0.631684	
9.3119	  0.630133	  0.340636	  0.628492	
9.3744	  0.625374	  0.343450	  0.606253	
9.4369	  0.619425	  0.345141	  0.597995	
9.49939	  0.604973	  0.360138	  0.597773	
9.56189	  0.590111	  0.390897	  0.594627	
9.62438	  0.577238	  0.423480	  0.579600	
9.68688	  0.566217	  0.459313	  0.563955	
9.74938	  0.565285	  0.485323	  0.566141	
9.81187	  0.582356	  0.508565	  0.589761	
9.87437	  0.604440	  0.523444	  0.630240	
9.93686	  0.631219	  0.515253	  0.666807	
9.99936	  0.654005	  0.486888	  0.696267	
10.0619	  0.674079	  0.451989	  0.714344	
